#!OML:ASF G:\acrobat\cartwheel_test\acrobat_wednesday\Session 1\acrobatwednesday.ASF
:FULLY-SPECIFIED
:DEGREES
176
root 14.4171 14.1994 -14.0546 71.1468 6.83925 -386.028
lowerback 24.9889 2.48444 -14.9396
upperback 5.06728 -0.934798 -3.02338
thorax -7.99736 -0.152641 5.4121
lowerneck -26.6238 -0.648299 -9.18193
upperneck 13.6415 -1.11655 18.1347
head 8.85028 1.00977 7.80747
rclavicle -2.22639e-014 1.74931e-014
rhumerus 16.5966 -48.0113 -13.8311
rradius 34.6888
rwrist 15.1023
rhand -47.3969 -14.0555
rfingers 7.12502
rthumb -20.0888 316.963
lclavicle -2.22639e-014 1.74931e-014
lhumerus 35.4973 38.7347 25.3947
lradius 29.1393
lwrist 55.0314
lhand -47.4094 -1.54037
lfingers 7.12502
lthumb -20.1008 27.4398
rfemur -28.3099 -348.45 13.9474
rtibia 6.71026
rfoot -25.0665 4.04251
rtoes -3.37566
lfemur -51.4198 12.4583 16.38
ltibia 36.1525
lfoot 213.993 163.236
ltoes 11.3974
177
root 13.9872 14.4637 -14.1428 71.0846 7.59794 -382.709
lowerback 25.5226 2.32738 -14.2745
upperback 5.35816 -0.987848 -2.8069
thorax -7.93948 -0.198062 5.30774
lowerneck -25.6422 -1.49625 -10.1973
upperneck 12.6804 -1.97588 18.633
head 8.51541 0.53713 7.9747
rclavicle -1.27222e-013 -5.48646e-014
rhumerus 15.8203 -48.8344 -15.9568
rradius 34.5041
rwrist 14.4885
rhand -47.8215 -16.8819
rfingers 7.12502
rthumb -20.4968 314.18
lclavicle -1.27222e-013 -5.48646e-014
lhumerus 35.7174 38.2858 22.8964
lradius 31.0939
lwrist 54.6317
lhand -47.3049 -4.44018
lfingers 7.12502
lthumb -20.0004 24.5505
rfemur -31.6864 -347.53 12.3145
rtibia 6.34768
rfoot -25.549 6.43085
rtoes -1.81964
lfemur -48.6625 10.2503 17.779
ltibia 28.9384
lfoot 211.061 167.668
ltoes -4.85072
178
root 13.5374 14.7199 -14.1888 71.2305 8.97828 -379.039
lowerback 26.0688 2.07796 -13.1429
upperback 5.5578 -1.02575 -2.46796
thorax -8.00772 -0.230752 5.07471
lowerneck -24.5632 -2.34929 -11.3534
upperneck 11.5853 -2.87773 19.5652
head 8.1629 0.0678737 8.3261
rclavicle 6.36111e-014 3.49861e-014
rhumerus 13.4763 -48.3893 -16.0258
rradius 34.293
rwrist 12.6424
rhand -47.101 -17.128
rfingers 7.12502
rthumb -19.8044 313.861
lclavicle 6.36111e-014 3.49861e-014
lhumerus 36.0822 37.6772 20.9201
lradius 33.2185
lwrist 54.952
lhand -47.1174 -4.49228
lfingers 7.12502
lthumb -19.8201 24.5171
rfemur -34.821 -345.679 9.39601
rtibia 6.42237
rfoot -27.4058 7.60724
rtoes 0.112639
lfemur -45.6771 5.88561 20.823
ltibia 20.7066
lfoot 208.87 168.672
ltoes -17.6062
179
root 13.077 14.9381 -14.2058 71.6834 10.0656 -374.949
lowerback 26.2036 1.81488 -12.407
upperback 5.6932 -1.11963 -2.18231
thorax -7.91949 -0.28687 5.01368
lowerneck -23.4699 -3.15848 -12.3194
upperneck 10.6166 -3.80005 20.3993
head 7.87212 -0.417423 8.6187
rclavicle -2.54444e-014 5.56597e-015
rhumerus 11.0678 -47.4118 -15.6687
rradius 34.0616
rwrist 10.5675
rhand -46.2193 -16.7939
rfingers 7.12502
rthumb -18.9566 314.11
lclavicle -2.54444e-014 5.56597e-015
lhumerus 38.2973 38.0615 21.2144
lradius 33.8944
lwrist 54.026
lhand -46.5477 -4.54434
lfingers 7.12502
lthumb -19.2724 24.5207
rfemur -37.7454 -344.488 5.01082
rtibia 6.99503
rfoot -28.6548 7.8293
rtoes 0.0688905
lfemur -42.8007 -2.9874 25.7714
ltibia 11.2899
lfoot 169.652 146.596
ltoes 58.0855
180
root 12.6278 15.1052 -14.2122 72.2367 10.7856 -371.073
lowerback 25.8831 1.62802 -11.8944
upperback 5.77381 -1.11705 -1.8673
thorax -7.67317 -0.302692 5.07321
lowerneck -22.5419 -3.97198 -12.8633
upperneck 10.1319 -4.82194 20.5603
head 7.76347 -0.977198 8.59659
rclavicle 7.31528e-014 3.06128e-014
rhumerus 10.7356 -47.5079 -17.015
rradius 33.3244
rwrist 10.1356
rhand -45.454 -16.665
rfingers 7.12502
rthumb -18.2205 314.168
lclavicle 7.31528e-014 3.06128e-014
lhumerus 39.534 38.1192 21.1008
lradius 34.4652
lwrist 53.3143
lhand -45.8981 -5.64943
lfingers 7.12502
lthumb -18.6477 23.4768
rfemur -40.3689 -347.709 2.97363
rtibia 9.13613
rfoot -26.1028 14.6948
rtoes -0.724603
lfemur -41.6613 -19.2402 35.6649
ltibia 1.50048
lfoot 129.72 183.252
ltoes 64.0922
181
root 12.204 15.2112 -14.2253 72.5761 11.293 -367.807
lowerback 25.1513 1.6725 -11.3255
upperback 5.88958 -0.75301 -1.3814
thorax -7.23866 -0.166435 5.17438
lowerneck -21.7365 -4.84467 -13.3724
upperneck 9.83834 -5.88726 20.2645
head 7.72591 -1.5842 8.40173
rclavicle -2.38542e-014 -2.60408e-014
rhumerus 10.8735 -47.2892 -18.2082
rradius 32.6723
rwrist 9.25481
rhand -44.6081 -16.9179
rfingers 7.12502
rthumb -17.4065 313.841
lclavicle -2.38542e-014 -2.60408e-014
lhumerus 40.5942 38.3953 21.7226
lradius 34.7102
lwrist 51.6039
lhand -44.8976 -6.76645
lfingers 7.12502
lthumb -17.6851 22.4493
rfemur -42.9731 -351.358 1.42177
rtibia 12.2726
rfoot -23.6009 16.9064
rtoes -19.4626
lfemur -43.5352 -29.8574 41.8379
ltibia -1.43247
lfoot 114.749 183.718
ltoes 66.9052
182
root 11.8014 15.254 -14.253 72.1611 11.7532 -365.031
lowerback 25.3012 1.47257 -9.47696
upperback 5.77476 -0.592719 -1.62321
thorax -7.52155 -0.101977 3.80875
lowerneck -20.9229 -5.59189 -13.6917
upperneck 9.85442 -6.98378 20.5942
head 7.82617 -2.13848 8.41571
rclavicle 3.81667e-014 1.23246e-014
rhumerus 10.8553 -46.602 -20.287
rradius 32.1542
rwrist 8.49626
rhand -43.2764 -16.858
rfingers 7.12502
rthumb -16.1245 313.793
lclavicle 3.81667e-014 1.23246e-014
lhumerus 40.2171 37.9057 20.1761
lradius 35.3055
lwrist 50.4347
lhand -43.9823 -7.24759
lfingers 7.12502
lthumb -16.8042 22.0453
rfemur -45.024 -355.08 0.795896
rtibia 16.2995
rfoot -18.0564 20.4728
rtoes -22.6548
lfemur -41.3827 -26.7159 35.3254
ltibia -0.31624
lfoot 113.968 184.621
ltoes 67.3425
183
root 11.4011 15.2381 -14.2969 70.8803 12.384 -362.781
lowerback 25.7076 1.29298 -7.5561
upperback 5.95981 -0.367678 -1.66848
thorax -7.58452 -0.0290995 2.59853
lowerneck -20.7183 -6.17021 -14.0845
upperneck 10.2788 -7.87182 21.2331
head 8.15558 -2.5272 8.60997
rclavicle 6.36111e-015 3.61788e-014
rhumerus 12.8842 -47.1378 -24.3797
rradius 31.5139
rwrist 9.71484
rhand -41.5862 -16.0181
rfingers 7.12502
rthumb -14.4965 314.508
lclavicle 6.36111e-015 3.61788e-014
lhumerus 38.6194 37.8375 17.6396
lradius 35.9144
lwrist 49.991
lhand -43.5381 -7.73368
lfingers 7.12502
lthumb -16.3765 21.595
rfemur -46.4034 -357.645 0.624029
rtibia 20.8308
rfoot -13.3045 21.9781
rtoes -19.6017
lfemur -37.8709 -24.0644 28.8741
ltibia 0.549757
lfoot 108.895 181.639
ltoes 60.9177
184
root 10.9913 15.1687 -14.3578 69.2642 13.1804 -360.744
lowerback 26.6834 0.969517 -5.71036
upperback 5.9336 -0.364446 -1.55238
thorax -8.13296 -0.0400196 1.67325
lowerneck -20.8571 -6.6335 -14.4398
upperneck 10.8847 -8.58957 21.7692
head 8.57484 -2.81514 8.79395
rclavicle -2.78299e-015 4.69629e-014
rhumerus 17.2452 -48.6152 -31.3942
rradius 30.6912
rwrist 13.8161
rhand -40.3141 -14.5666
rfingers 7.12502
rthumb -13.2706 315.876
lclavicle -2.78299e-015 4.69629e-014
lhumerus 35.4227 37.486 13.6725
lradius 36.7069
lwrist 50.5989
lhand -43.9107 -7.83668
lfingers 7.12502
lthumb -16.7352 21.462
rfemur -47.6551 -359.988 1.23438
rtibia 25.2542
rfoot -7.47941 21.6997
rtoes -30.4403
lfemur -34.2246 -20.8856 22.7014
ltibia 2.19095
lfoot 116.821 181.758
ltoes 62.4265
185
root 10.5774 15.0492 -14.4256 67.7224 13.9492 -358.448
lowerback 27.4595 0.863909 -4.45743
upperback 6.02238 -0.158982 -1.13833
thorax -8.44527 0.0426039 1.34722
lowerneck -20.9213 -7.17626 -14.5825
upperneck 10.9672 -9.3719 22.0768
head 8.80532 -3.15915 8.81342
rclavicle 1.2275e-014 1.98241e-014
rhumerus 13.9715 -44.5902 -29.1024
rradius 31.7923
rwrist 10.3738
rhand -39.6876 -13.9669
rfingers 7.12502
rthumb -12.6666 316.437
lclavicle 1.2275e-014 1.98241e-014
lhumerus 33.3499 37.6574 11.1969
lradius 37.0773
lwrist 50.6432
lhand -44.1694 -7.34349
lfingers 7.12502
lthumb -16.9842 21.934
rfemur -48.881 -361.471 0.890418
rtibia 29.876
rfoot -10.6146 17.2705
rtoes -16.608
lfemur -31.8737 -16.9151 16.6143
ltibia 5.88045
lfoot 127.568 183.741
ltoes 61.7401
186
root 10.1648 14.8778 -14.4847 66.5295 14.5181 -355.915
lowerback 27.7323 1.04812 -3.87869
upperback 6.11988 0.288062 -0.536773
thorax -8.49776 0.245118 1.53369
lowerneck -20.5521 -7.79493 -14.4925
upperneck 10.473 -10.2197 22.0342
head 8.74345 -3.59335 8.61235
rclavicle -1.82882e-014 -2.57178e-015
rhumerus 12.2576 -42.456 -28.0597
rradius 32.0785
rwrist 8.85508
rhand -39.4029 -13.1611
rfingers 7.12502
rthumb -12.3921 317.226
lclavicle -1.82882e-014 -2.57178e-015
lhumerus 32.8053 38.5234 10.5424
lradius 36.862
lwrist 49.9717
lhand -43.9173 -6.78263
lfingers 7.12502
lthumb -16.7415 22.5155
rfemur -50.7246 -363.113 0.759813
rtibia 34.2923
rfoot -11.53 12.6338
rtoes -10.2664
lfemur -30.8805 -12.8379 10.6414
ltibia 11.1086
lfoot 150.578 149.109
ltoes 60.2679
